name Walk7.mot
datacolumns 19
datarows 12
range 1.58300000 1.59400000
endheader

                time	   L_ground_force_vx	   L_ground_force_vy	   L_ground_force_vz	   L_ground_force_px	   L_ground_force_py	   L_ground_force_pz	   R_ground_force_vx	   R_ground_force_vy	   R_ground_force_vz	   R_ground_force_px	   R_ground_force_py	   R_ground_force_pz	   L_ground_torque_x	   L_ground_torque_y	   L_ground_torque_z	   R_ground_torque_x	   R_ground_torque_y	   R_ground_torque_z	
          1.58300000	          6.15297479	        647.53705762	         36.85460209	         -0.28737132	          0.00000000	         -0.03950473	         -0.05407257	          0.63767414	          0.03645599	         -0.00000540	          0.00000000	         -0.00000223	          0.00000000	          0.28024094	          0.00000000	          0.00000000	         -0.01195554	          0.00000000	
          1.58400000	          6.18833674	        648.23791566	         36.87024897	         -0.28666941	          0.00000000	         -0.03959564	         -0.04805915	          0.61367356	          0.03393192	         -0.00001595	          0.00000000	         -0.00001744	          0.00000000	          0.28756862	          0.00000000	          0.00000000	         -0.01174923	          0.00000000	
          1.58500000	          6.22999885	        648.96659795	         36.88177881	         -0.28597221	          0.00000000	         -0.03968517	         -0.04128844	          0.58490830	          0.03103316	         -0.00002742	          0.00000000	         -0.00003398	          0.00000000	          0.29436308	          0.00000000	          0.00000000	         -0.01147523	          0.00000000	
          1.58600000	          6.27832543	        649.72362510	         36.88911434	         -0.28527991	          0.00000000	         -0.03977330	         -0.03371806	          0.55105441	          0.02773687	         -0.00003984	          0.00000000	         -0.00005193	          0.00000000	          0.30064021	          0.00000000	          0.00000000	         -0.01112838	          0.00000000	
          1.58700000	          6.33368154	        650.50949799	         36.89219071	         -0.28459274	          0.00000000	         -0.03986001	         -0.02530494	          0.51177884	          0.02401972	         -0.00005325	          0.00000000	         -0.00007133	          0.00000000	          0.30641557	          0.00000000	          0.00000000	         -0.01070334	          0.00000000	
          1.58800000	          6.39643289	        651.32469453	         36.89095507	         -0.28391090	          0.00000000	         -0.03994527	         -0.01600553	          0.46673999	          0.01985796	         -0.00006769	          0.00000000	         -0.00009223	          0.00000000	          0.31170438	          0.00000000	          0.00000000	         -0.01019459	          0.00000000	
          1.58900000	          6.46694620	        652.16966592	         36.88536525	         -0.28323460	          0.00000000	         -0.04002905	         -0.00577586	          0.41558830	          0.01522745	         -0.00008318	          0.00000000	         -0.00011470	          0.00000000	          0.31652154	          0.00000000	          0.00000000	         -0.00959647	          0.00000000	
          1.59000000	          6.54558979	        653.04483317	         36.87538811	         -0.28256407	          0.00000000	         -0.04011132	          0.00542825	          0.35796700	          0.01010377	         -0.00009978	          0.00000000	         -0.00013878	          0.00000000	          0.32088191	          0.00000000	          0.00000000	         -0.00890314	          0.00000000	
          1.59100000	          6.63273424	        653.95058416	         36.86099783	         -0.28189952	          0.00000000	         -0.04019205	          0.01765108	          0.29351287	          0.00446224	         -0.00011750	          0.00000000	         -0.00016453	          0.00000000	          0.32480045	          0.00000000	          0.00000000	         -0.00810861	          0.00000000	
          1.59200000	          6.72875284	        654.88727167	         36.84217484	         -0.28124116	          0.00000000	         -0.04027122	          0.03093682	          0.22185716	         -0.00172196	         -0.00013638	          0.00000000	         -0.00019199	          0.00000000	          0.32829234	          0.00000000	          0.00000000	         -0.00720675	          0.00000000	
          1.59300000	          6.83402178	        655.85521185	         36.81890510	         -0.28058920	          0.00000000	         -0.04034879	          0.04532938	          0.14262658	         -0.00847371	         -0.00015646	          0.00000000	         -0.00022121	          0.00000000	          0.33137289	          0.00000000	          0.00000000	         -0.00619133	          0.00000000	
          1.59400000	          6.94891990	        656.85468316	         36.79117996	         -0.27994385	          0.00000000	         -0.04042475	          0.06087216	          0.05544447	         -0.01581788	         -0.00017776	          0.00000000	         -0.00025223	          0.00000000	          0.33405740	          0.00000000	          0.00000000	         -0.00505599	          0.00000000	
